<svg xmlns="http://www.w3.org/2000/svg" viewBox="0 0 99.15 99.9"><title>&#x8D44;&#x6E90; 219</title><path d="M49.88 19.79A113 113 0 0 0 59.2 5.17C61.36 1.29 63.83-.18 68.34 0c9.19.4 18.42.1 27.63.12 1 0 2.23-.48 2.77.47s-.49 2-1 2.87Q87.4 20.06 77 36.57 57.8 67.23 38.65 97.92a3.56 3.56 0 0 1-3.38 2Q19 99.82 2.66 99.9C.82 99.91 0 99.42 0 97.37q.08-47.15 0-94.3a10.26 10.26 0 0 1 .17-1.23c3 3.23 5.12 7.08 7.4 10.79 3.52 5.74 7 11.53 10.53 17.25 3.83 6.22 7.79 12.39 11.8 18.52 1.07 1.63 1.84 1.06 2.7-.31 4-6.36 8.25-12.59 12.08-19.06 1.79-3.03 4.02-5.85 5.2-9.24z" fill="#93c13d"/><path d="M49.88 19.79C48.7 23.18 46.47 26 44.68 29c-3.83 6.47-8.07 12.7-12.08 19.06-.86 1.37-1.63 1.94-2.7.31-4-6.13-8-12.3-11.8-18.52-3.53-5.72-7-11.51-10.53-17.25C5.29 8.92 3.17 5.07.17 1.84-.07 0 1.28.17 2.42.16h21.12C27.27.14 31 .27 34.72.09a4.33 4.33 0 0 1 4.36 2.47c3.52 5.79 7.18 11.5 10.8 17.23zM80.73 99.87H64.55a3.21 3.21 0 0 1-3.22-1.74c-2.3-3.84-4.7-7.62-7.16-11.36a2.93 2.93 0 0 1 0-3.62C59.6 74.55 65 65.9 70.39 57.27c.76-1.22 1.35-1.87 2.54-.08C81.84 70.57 90 84.42 98.66 98c1 1.64.32 1.94-1.25 1.92H80.73z" fill="#1b9ad0"/></svg>